<?xml version="1.0" encoding="utf-8"?>
<!-- Generator: Adobe Illustrator 23.0.4, SVG Export Plug-In . SVG Version: 6.00 Build 0)  -->
<svg version="1.1" id="Layer_1" xmlns="http://www.w3.org/2000/svg" xmlns:xlink="http://www.w3.org/1999/xlink" x="0px" y="0px"
	 viewBox="0 0 1155 1250.9" style="enable-background:new 0 0 1155 1250.9;" xml:space="preserve">
<style type="text/css">
	.st0{fill:#020202;}
	.st1{fill:none;}
	.st2{enable-background:new    ;}
</style>
<g transform="translate(70,70)">
	<g transform="translate(385,0) scale(0.35,0.35)">
		<g transform="">
			<rect x="0" y="-34.3" class="st0" width="100" height="100"/>
		</g>
	</g>
	<g transform="translate(420,0) scale(0.35,0.35)">
		<g transform="">
			<rect x="0" y="-34.3" class="st0" width="100" height="100"/>
		</g>
	</g>
	<g transform="translate(490,0) scale(0.35,0.35)">
		<g transform="">
			<rect x="0" y="-34.3" class="st0" width="100" height="100"/>
		</g>
	</g>
	<g transform="translate(525,0) scale(0.35,0.35)">
		<g transform="">
			<rect x="0" y="-34.3" class="st0" width="100" height="100"/>
		</g>
	</g>
	<g transform="translate(595,0) scale(0.35,0.35)">
		<g transform="">
			<rect x="0" y="-34.3" class="st0" width="100" height="100"/>
		</g>
	</g>
	<g transform="translate(630,0) scale(0.35,0.35)">
		<g transform="">
			<rect x="0" y="-34.3" class="st0" width="100" height="100"/>
		</g>
	</g>
	<g transform="translate(665,0) scale(0.35,0.35)">
		<g transform="">
			<rect x="0" y="-34.3" class="st0" width="100" height="100"/>
		</g>
	</g>
	<g transform="translate(315,35) scale(0.35,0.35)">
		<g transform="">
			<rect x="0" y="-34.3" class="st0" width="100" height="100"/>
		</g>
	</g>
	<g transform="translate(420,35) scale(0.35,0.35)">
		<g transform="">
			<rect x="0" y="-34.3" class="st0" width="100" height="100"/>
		</g>
	</g>
	<g transform="translate(455,35) scale(0.35,0.35)">
		<g transform="">
			<rect x="0" y="-34.3" class="st0" width="100" height="100"/>
		</g>
	</g>
	<g transform="translate(525,35) scale(0.35,0.35)">
		<g transform="">
			<rect x="0" y="-34.3" class="st0" width="100" height="100"/>
		</g>
	</g>
	<g transform="translate(630,35) scale(0.35,0.35)">
		<g transform="">
			<rect x="0" y="-34.3" class="st0" width="100" height="100"/>
		</g>
	</g>
	<g transform="translate(700,35) scale(0.35,0.35)">
		<g transform="">
			<rect x="0" y="-34.3" class="st0" width="100" height="100"/>
		</g>
	</g>
	<g transform="translate(315,70) scale(0.35,0.35)">
		<g transform="">
			<rect x="0" y="-34.3" class="st0" width="100" height="100"/>
		</g>
	</g>
	<g transform="translate(420,70) scale(0.35,0.35)">
		<g transform="">
			<rect x="0" y="-34.3" class="st0" width="100" height="100"/>
		</g>
	</g>
	<g transform="translate(490,70) scale(0.35,0.35)">
		<g transform="">
			<rect x="0" y="-34.3" class="st0" width="100" height="100"/>
		</g>
	</g>
	<g transform="translate(595,70) scale(0.35,0.35)">
		<g transform="">
			<rect x="0" y="-34.3" class="st0" width="100" height="100"/>
		</g>
	</g>
	<g transform="translate(315,105) scale(0.35,0.35)">
		<g transform="">
			<rect x="0" y="-34.3" class="st0" width="100" height="100"/>
		</g>
	</g>
	<g transform="translate(420,105) scale(0.35,0.35)">
		<g transform="">
			<rect x="0" y="-34.3" class="st0" width="100" height="100"/>
		</g>
	</g>
	<g transform="translate(490,105) scale(0.35,0.35)">
		<g transform="">
			<rect x="0" y="-34.3" class="st0" width="100" height="100"/>
		</g>
	</g>
	<g transform="translate(525,105) scale(0.35,0.35)">
		<g transform="">
			<rect x="0" y="-34.3" class="st0" width="100" height="100"/>
		</g>
	</g>
	<g transform="translate(315,140) scale(0.35,0.35)">
		<g transform="">
			<rect x="0" y="-34.3" class="st0" width="100" height="100"/>
		</g>
	</g>
	<g transform="translate(455,140) scale(0.35,0.35)">
		<g transform="">
			<rect x="0" y="-34.3" class="st0" width="100" height="100"/>
		</g>
	</g>
	<g transform="translate(525,140) scale(0.35,0.35)">
		<g transform="">
			<rect x="0" y="-34.3" class="st0" width="100" height="100"/>
		</g>
	</g>
	<g transform="translate(560,140) scale(0.35,0.35)">
		<g transform="">
			<rect x="0" y="-34.3" class="st0" width="100" height="100"/>
		</g>
	</g>
	<g transform="translate(595,140) scale(0.35,0.35)">
		<g transform="">
			<rect x="0" y="-34.3" class="st0" width="100" height="100"/>
		</g>
	</g>
	<g transform="translate(630,140) scale(0.35,0.35)">
		<g transform="">
			<rect x="0" y="-34.3" class="st0" width="100" height="100"/>
		</g>
	</g>
	<g transform="translate(280,175) scale(0.35,0.35)">
		<g transform="">
			<rect x="0" y="-34.3" class="st0" width="100" height="100"/>
		</g>
	</g>
	<g transform="translate(455,175) scale(0.35,0.35)">
		<g transform="">
			<rect x="0" y="-34.3" class="st0" width="100" height="100"/>
		</g>
	</g>
	<g transform="translate(525,175) scale(0.35,0.35)">
		<g transform="">
			<rect x="0" y="-34.3" class="st0" width="100" height="100"/>
		</g>
	</g>
	<g transform="translate(595,175) scale(0.35,0.35)">
		<g transform="">
			<rect x="0" y="-34.3" class="st0" width="100" height="100"/>
		</g>
	</g>
	<g transform="translate(630,175) scale(0.35,0.35)">
		<g transform="">
			<rect x="0" y="-34.3" class="st0" width="100" height="100"/>
		</g>
	</g>
	<g transform="translate(665,175) scale(0.35,0.35)">
		<g transform="">
			<rect x="0" y="-34.3" class="st0" width="100" height="100"/>
		</g>
	</g>
	<g transform="translate(700,175) scale(0.35,0.35)">
		<g transform="">
			<rect x="0" y="-34.3" class="st0" width="100" height="100"/>
		</g>
	</g>
	<g transform="translate(280,210) scale(0.35,0.35)">
		<g transform="">
			<rect x="0" y="-34.3" class="st0" width="100" height="100"/>
		</g>
	</g>
	<g transform="translate(350,210) scale(0.35,0.35)">
		<g transform="">
			<rect x="0" y="-34.3" class="st0" width="100" height="100"/>
		</g>
	</g>
	<g transform="translate(420,210) scale(0.35,0.35)">
		<g transform="">
			<rect x="0" y="-34.3" class="st0" width="100" height="100"/>
		</g>
	</g>
	<g transform="translate(490,210) scale(0.35,0.35)">
		<g transform="">
			<rect x="0" y="-34.3" class="st0" width="100" height="100"/>
		</g>
	</g>
	<g transform="translate(560,210) scale(0.35,0.35)">
		<g transform="">
			<rect x="0" y="-34.3" class="st0" width="100" height="100"/>
		</g>
	</g>
	<g transform="translate(630,210) scale(0.35,0.35)">
		<g transform="">
			<rect x="0" y="-34.3" class="st0" width="100" height="100"/>
		</g>
	</g>
	<g transform="translate(700,210) scale(0.35,0.35)">
		<g transform="">
			<rect x="0" y="-34.3" class="st0" width="100" height="100"/>
		</g>
	</g>
	<g transform="translate(385,245) scale(0.35,0.35)">
		<g transform="">
			<rect x="0" y="-34.3" class="st0" width="100" height="100"/>
		</g>
	</g>
	<g transform="translate(560,245) scale(0.35,0.35)">
		<g transform="">
			<rect x="0" y="-34.3" class="st0" width="100" height="100"/>
		</g>
	</g>
	<g transform="translate(595,245) scale(0.35,0.35)">
		<g transform="">
			<rect x="0" y="-34.3" class="st0" width="100" height="100"/>
		</g>
	</g>
	<g transform="translate(630,245) scale(0.35,0.35)">
		<g transform="">
			<rect x="0" y="-34.3" class="st0" width="100" height="100"/>
		</g>
	</g>
	<g transform="translate(665,245) scale(0.35,0.35)">
		<g transform="">
			<rect x="0" y="-34.3" class="st0" width="100" height="100"/>
		</g>
	</g>
	<g transform="translate(700,245) scale(0.35,0.35)">
		<g transform="">
			<rect x="0" y="-34.3" class="st0" width="100" height="100"/>
		</g>
	</g>
	<g transform="translate(0,280) scale(0.35,0.35)">
		<g transform="">
			<rect x="0" y="-34.3" class="st0" width="100" height="100"/>
		</g>
	</g>
	<g transform="translate(105,280) scale(0.35,0.35)">
		<g transform="">
			<rect x="0" y="-34.3" class="st0" width="100" height="100"/>
		</g>
	</g>
	<g transform="translate(175,280) scale(0.35,0.35)">
		<g transform="">
			<rect x="0" y="-34.3" class="st0" width="100" height="100"/>
		</g>
	</g>
	<g transform="translate(210,280) scale(0.35,0.35)">
		<g transform="">
			<rect x="0" y="-34.3" class="st0" width="100" height="100"/>
		</g>
	</g>
	<g transform="translate(280,280) scale(0.35,0.35)">
		<g transform="">
			<rect x="0" y="-34.3" class="st0" width="100" height="100"/>
		</g>
	</g>
	<g transform="translate(350,280) scale(0.35,0.35)">
		<g transform="">
			<rect x="0" y="-34.3" class="st0" width="100" height="100"/>
		</g>
	</g>
	<g transform="translate(455,280) scale(0.35,0.35)">
		<g transform="">
			<rect x="0" y="-34.3" class="st0" width="100" height="100"/>
		</g>
	</g>
	<g transform="translate(525,280) scale(0.35,0.35)">
		<g transform="">
			<rect x="0" y="-34.3" class="st0" width="100" height="100"/>
		</g>
	</g>
	<g transform="translate(560,280) scale(0.35,0.35)">
		<g transform="">
			<rect x="0" y="-34.3" class="st0" width="100" height="100"/>
		</g>
	</g>
	<g transform="translate(665,280) scale(0.35,0.35)">
		<g transform="">
			<rect x="0" y="-34.3" class="st0" width="100" height="100"/>
		</g>
	</g>
	<g transform="translate(735,280) scale(0.35,0.35)">
		<g transform="">
			<rect x="0" y="-34.3" class="st0" width="100" height="100"/>
		</g>
	</g>
	<g transform="translate(805,280) scale(0.35,0.35)">
		<g transform="">
			<rect x="0" y="-34.3" class="st0" width="100" height="100"/>
		</g>
	</g>
	<g transform="translate(70,315) scale(0.35,0.35)">
		<g transform="">
			<rect x="0" y="-34.3" class="st0" width="100" height="100"/>
		</g>
	</g>
	<g transform="translate(140,315) scale(0.35,0.35)">
		<g transform="">
			<rect x="0" y="-34.3" class="st0" width="100" height="100"/>
		</g>
	</g>
	<g transform="translate(175,315) scale(0.35,0.35)">
		<g transform="">
			<rect x="0" y="-34.3" class="st0" width="100" height="100"/>
		</g>
	</g>
	<g transform="translate(245,315) scale(0.35,0.35)">
		<g transform="">
			<rect x="0" y="-34.3" class="st0" width="100" height="100"/>
		</g>
	</g>
	<g transform="translate(280,315) scale(0.35,0.35)">
		<g transform="">
			<rect x="0" y="-34.3" class="st0" width="100" height="100"/>
		</g>
	</g>
	<g transform="translate(315,315) scale(0.35,0.35)">
		<g transform="">
			<rect x="0" y="-34.3" class="st0" width="100" height="100"/>
		</g>
	</g>
	<g transform="translate(385,315) scale(0.35,0.35)">
		<g transform="">
			<rect x="0" y="-34.3" class="st0" width="100" height="100"/>
		</g>
	</g>
	<g transform="translate(420,315) scale(0.35,0.35)">
		<g transform="">
			<rect x="0" y="-34.3" class="st0" width="100" height="100"/>
		</g>
	</g>
	<g transform="translate(455,315) scale(0.35,0.35)">
		<g transform="">
			<rect x="0" y="-34.3" class="st0" width="100" height="100"/>
		</g>
	</g>
	<g transform="translate(490,315) scale(0.35,0.35)">
		<g transform="">
			<rect x="0" y="-34.3" class="st0" width="100" height="100"/>
		</g>
	</g>
	<g transform="translate(560,315) scale(0.35,0.35)">
		<g transform="">
			<rect x="0" y="-34.3" class="st0" width="100" height="100"/>
		</g>
	</g>
	<g transform="translate(770,315) scale(0.35,0.35)">
		<g transform="">
			<rect x="0" y="-34.3" class="st0" width="100" height="100"/>
		</g>
	</g>
	<g transform="translate(875,315) scale(0.35,0.35)">
		<g transform="">
			<rect x="0" y="-34.3" class="st0" width="100" height="100"/>
		</g>
	</g>
	<g transform="translate(980,315) scale(0.35,0.35)">
		<g transform="">
			<rect x="0" y="-34.3" class="st0" width="100" height="100"/>
		</g>
	</g>
	<g transform="translate(35,350) scale(0.35,0.35)">
		<g transform="">
			<rect x="0" y="-34.3" class="st0" width="100" height="100"/>
		</g>
	</g>
	<g transform="translate(70,350) scale(0.35,0.35)">
		<g transform="">
			<rect x="0" y="-34.3" class="st0" width="100" height="100"/>
		</g>
	</g>
	<g transform="translate(140,350) scale(0.35,0.35)">
		<g transform="">
			<rect x="0" y="-34.3" class="st0" width="100" height="100"/>
		</g>
	</g>
	<g transform="translate(175,350) scale(0.35,0.35)">
		<g transform="">
			<rect x="0" y="-34.3" class="st0" width="100" height="100"/>
		</g>
	</g>
	<g transform="translate(210,350) scale(0.35,0.35)">
		<g transform="">
			<rect x="0" y="-34.3" class="st0" width="100" height="100"/>
		</g>
	</g>
	<g transform="translate(245,350) scale(0.35,0.35)">
		<g transform="">
			<rect x="0" y="-34.3" class="st0" width="100" height="100"/>
		</g>
	</g>
	<g transform="translate(280,350) scale(0.35,0.35)">
		<g transform="">
			<rect x="0" y="-34.3" class="st0" width="100" height="100"/>
		</g>
	</g>
	<g transform="translate(315,350) scale(0.35,0.35)">
		<g transform="">
			<rect x="0" y="-34.3" class="st0" width="100" height="100"/>
		</g>
	</g>
	<g transform="translate(350,350) scale(0.35,0.35)">
		<g transform="">
			<rect x="0" y="-34.3" class="st0" width="100" height="100"/>
		</g>
	</g>
	<g transform="translate(385,350) scale(0.35,0.35)">
		<g transform="">
			<rect x="0" y="-34.3" class="st0" width="100" height="100"/>
		</g>
	</g>
	<g transform="translate(490,350) scale(0.35,0.35)">
		<g transform="">
			<rect x="0" y="-34.3" class="st0" width="100" height="100"/>
		</g>
	</g>
	<g transform="translate(560,350) scale(0.35,0.35)">
		<g transform="">
			<rect x="0" y="-34.3" class="st0" width="100" height="100"/>
		</g>
	</g>
	<g transform="translate(665,350) scale(0.35,0.35)">
		<g transform="">
			<rect x="0" y="-34.3" class="st0" width="100" height="100"/>
		</g>
	</g>
	<g transform="translate(700,350) scale(0.35,0.35)">
		<g transform="">
			<rect x="0" y="-34.3" class="st0" width="100" height="100"/>
		</g>
	</g>
	<g transform="translate(770,350) scale(0.35,0.35)">
		<g transform="">
			<rect x="0" y="-34.3" class="st0" width="100" height="100"/>
		</g>
	</g>
	<g transform="translate(805,350) scale(0.35,0.35)">
		<g transform="">
			<rect x="0" y="-34.3" class="st0" width="100" height="100"/>
		</g>
	</g>
	<g transform="translate(840,350) scale(0.35,0.35)">
		<g transform="">
			<rect x="0" y="-34.3" class="st0" width="100" height="100"/>
		</g>
	</g>
	<g transform="translate(875,350) scale(0.35,0.35)">
		<g transform="">
			<rect x="0" y="-34.3" class="st0" width="100" height="100"/>
		</g>
	</g>
	<g transform="translate(910,350) scale(0.35,0.35)">
		<g transform="">
			<rect x="0" y="-34.3" class="st0" width="100" height="100"/>
		</g>
	</g>
	<g transform="translate(945,350) scale(0.35,0.35)">
		<g transform="">
			<rect x="0" y="-34.3" class="st0" width="100" height="100"/>
		</g>
	</g>
	<g transform="translate(35,385) scale(0.35,0.35)">
		<g transform="">
			<rect x="0" y="-34.3" class="st0" width="100" height="100"/>
		</g>
	</g>
	<g transform="translate(70,385) scale(0.35,0.35)">
		<g transform="">
			<rect x="0" y="-34.3" class="st0" width="100" height="100"/>
		</g>
	</g>
	<g transform="translate(105,385) scale(0.35,0.35)">
		<g transform="">
			<rect x="0" y="-34.3" class="st0" width="100" height="100"/>
		</g>
	</g>
	<g transform="translate(350,385) scale(0.35,0.35)">
		<g transform="">
			<rect x="0" y="-34.3" class="st0" width="100" height="100"/>
		</g>
	</g>
	<g transform="translate(385,385) scale(0.35,0.35)">
		<g transform="">
			<rect x="0" y="-34.3" class="st0" width="100" height="100"/>
		</g>
	</g>
	<g transform="translate(455,385) scale(0.35,0.35)">
		<g transform="">
			<rect x="0" y="-34.3" class="st0" width="100" height="100"/>
		</g>
	</g>
	<g transform="translate(560,385) scale(0.35,0.35)">
		<g transform="">
			<rect x="0" y="-34.3" class="st0" width="100" height="100"/>
		</g>
	</g>
	<g transform="translate(630,385) scale(0.35,0.35)">
		<g transform="">
			<rect x="0" y="-34.3" class="st0" width="100" height="100"/>
		</g>
	</g>
	<g transform="translate(700,385) scale(0.35,0.35)">
		<g transform="">
			<rect x="0" y="-34.3" class="st0" width="100" height="100"/>
		</g>
	</g>
	<g transform="translate(840,385) scale(0.35,0.35)">
		<g transform="">
			<rect x="0" y="-34.3" class="st0" width="100" height="100"/>
		</g>
	</g>
	<g transform="translate(910,385) scale(0.35,0.35)">
		<g transform="">
			<rect x="0" y="-34.3" class="st0" width="100" height="100"/>
		</g>
	</g>
	<g transform="translate(945,385) scale(0.35,0.35)">
		<g transform="">
			<rect x="0" y="-34.3" class="st0" width="100" height="100"/>
		</g>
	</g>
	<g transform="translate(35,420) scale(0.35,0.35)">
		<g transform="">
			<rect x="0" y="-34.3" class="st0" width="100" height="100"/>
		</g>
	</g>
	<g transform="translate(210,420) scale(0.35,0.35)">
		<g transform="">
			<rect x="0" y="-34.3" class="st0" width="100" height="100"/>
		</g>
	</g>
	<g transform="translate(245,420) scale(0.35,0.35)">
		<g transform="">
			<rect x="0" y="-34.3" class="st0" width="100" height="100"/>
		</g>
	</g>
	<g transform="translate(315,420) scale(0.35,0.35)">
		<g transform="">
			<rect x="0" y="-34.3" class="st0" width="100" height="100"/>
		</g>
	</g>
	<g transform="translate(385,420) scale(0.35,0.35)">
		<g transform="">
			<rect x="0" y="-34.3" class="st0" width="100" height="100"/>
		</g>
	</g>
	<g transform="translate(420,420) scale(0.35,0.35)">
		<g transform="">
			<rect x="0" y="-34.3" class="st0" width="100" height="100"/>
		</g>
	</g>
	<g transform="translate(455,420) scale(0.35,0.35)">
		<g transform="">
			<rect x="0" y="-34.3" class="st0" width="100" height="100"/>
		</g>
	</g>
	<g transform="translate(490,420) scale(0.35,0.35)">
		<g transform="">
			<rect x="0" y="-34.3" class="st0" width="100" height="100"/>
		</g>
	</g>
	<g transform="translate(525,420) scale(0.35,0.35)">
		<g transform="">
			<rect x="0" y="-34.3" class="st0" width="100" height="100"/>
		</g>
	</g>
	<g transform="translate(560,420) scale(0.35,0.35)">
		<g transform="">
			<rect x="0" y="-34.3" class="st0" width="100" height="100"/>
		</g>
	</g>
	<g transform="translate(595,420) scale(0.35,0.35)">
		<g transform="">
			<rect x="0" y="-34.3" class="st0" width="100" height="100"/>
		</g>
	</g>
	<g transform="translate(700,420) scale(0.35,0.35)">
		<g transform="">
			<rect x="0" y="-34.3" class="st0" width="100" height="100"/>
		</g>
	</g>
	<g transform="translate(770,420) scale(0.35,0.35)">
		<g transform="">
			<rect x="0" y="-34.3" class="st0" width="100" height="100"/>
		</g>
	</g>
	<g transform="translate(875,420) scale(0.35,0.35)">
		<g transform="">
			<rect x="0" y="-34.3" class="st0" width="100" height="100"/>
		</g>
	</g>
	<g transform="translate(945,420) scale(0.35,0.35)">
		<g transform="">
			<rect x="0" y="-34.3" class="st0" width="100" height="100"/>
		</g>
	</g>
	<g transform="translate(980,420) scale(0.35,0.35)">
		<g transform="">
			<rect x="0" y="-34.3" class="st0" width="100" height="100"/>
		</g>
	</g>
	<g transform="translate(0,455) scale(0.35,0.35)">
		<g transform="">
			<rect x="0" y="-34.3" class="st0" width="100" height="100"/>
		</g>
	</g>
	<g transform="translate(35,455) scale(0.35,0.35)">
		<g transform="">
			<rect x="0" y="-34.3" class="st0" width="100" height="100"/>
		</g>
	</g>
	<g transform="translate(70,455) scale(0.35,0.35)">
		<g transform="">
			<rect x="0" y="-34.3" class="st0" width="100" height="100"/>
		</g>
	</g>
	<g transform="translate(175,455) scale(0.35,0.35)">
		<g transform="">
			<rect x="0" y="-34.3" class="st0" width="100" height="100"/>
		</g>
	</g>
	<g transform="translate(315,455) scale(0.35,0.35)">
		<g transform="">
			<rect x="0" y="-34.3" class="st0" width="100" height="100"/>
		</g>
	</g>
	<g transform="translate(455,455) scale(0.35,0.35)">
		<g transform="">
			<rect x="0" y="-34.3" class="st0" width="100" height="100"/>
		</g>
	</g>
	<g transform="translate(595,455) scale(0.35,0.35)">
		<g transform="">
			<rect x="0" y="-34.3" class="st0" width="100" height="100"/>
		</g>
	</g>
	<g transform="translate(665,455) scale(0.35,0.35)">
		<g transform="">
			<rect x="0" y="-34.3" class="st0" width="100" height="100"/>
		</g>
	</g>
	<g transform="translate(700,455) scale(0.35,0.35)">
		<g transform="">
			<rect x="0" y="-34.3" class="st0" width="100" height="100"/>
		</g>
	</g>
	<g transform="translate(735,455) scale(0.35,0.35)">
		<g transform="">
			<rect x="0" y="-34.3" class="st0" width="100" height="100"/>
		</g>
	</g>
	<g transform="translate(35,490) scale(0.35,0.35)">
		<g transform="">
			<rect x="0" y="-34.3" class="st0" width="100" height="100"/>
		</g>
	</g>
	<g transform="translate(175,490) scale(0.35,0.35)">
		<g transform="">
			<rect x="0" y="-34.3" class="st0" width="100" height="100"/>
		</g>
	</g>
	<g transform="translate(210,490) scale(0.35,0.35)">
		<g transform="">
			<rect x="0" y="-34.3" class="st0" width="100" height="100"/>
		</g>
	</g>
	<g transform="translate(280,490) scale(0.35,0.35)">
		<g transform="">
			<rect x="0" y="-34.3" class="st0" width="100" height="100"/>
		</g>
	</g>
	<g transform="translate(315,490) scale(0.35,0.35)">
		<g transform="">
			<rect x="0" y="-34.3" class="st0" width="100" height="100"/>
		</g>
	</g>
	<g transform="translate(385,490) scale(0.35,0.35)">
		<g transform="">
			<rect x="0" y="-34.3" class="st0" width="100" height="100"/>
		</g>
	</g>
	<g transform="translate(420,490) scale(0.35,0.35)">
		<g transform="">
			<rect x="0" y="-34.3" class="st0" width="100" height="100"/>
		</g>
	</g>
	<g transform="translate(455,490) scale(0.35,0.35)">
		<g transform="">
			<rect x="0" y="-34.3" class="st0" width="100" height="100"/>
		</g>
	</g>
	<g transform="translate(490,490) scale(0.35,0.35)">
		<g transform="">
			<rect x="0" y="-34.3" class="st0" width="100" height="100"/>
		</g>
	</g>
	<g transform="translate(560,490) scale(0.35,0.35)">
		<g transform="">
			<rect x="0" y="-34.3" class="st0" width="100" height="100"/>
		</g>
	</g>
	<g transform="translate(595,490) scale(0.35,0.35)">
		<g transform="">
			<rect x="0" y="-34.3" class="st0" width="100" height="100"/>
		</g>
	</g>
	<g transform="translate(700,490) scale(0.35,0.35)">
		<g transform="">
			<rect x="0" y="-34.3" class="st0" width="100" height="100"/>
		</g>
	</g>
	<g transform="translate(735,490) scale(0.35,0.35)">
		<g transform="">
			<rect x="0" y="-34.3" class="st0" width="100" height="100"/>
		</g>
	</g>
	<g transform="translate(805,490) scale(0.35,0.35)">
		<g transform="">
			<rect x="0" y="-34.3" class="st0" width="100" height="100"/>
		</g>
	</g>
	<g transform="translate(875,490) scale(0.35,0.35)">
		<g transform="">
			<rect x="0" y="-34.3" class="st0" width="100" height="100"/>
		</g>
	</g>
	<g transform="translate(910,490) scale(0.35,0.35)">
		<g transform="">
			<rect x="0" y="-34.3" class="st0" width="100" height="100"/>
		</g>
	</g>
	<g transform="translate(945,490) scale(0.35,0.35)">
		<g transform="">
			<rect x="0" y="-34.3" class="st0" width="100" height="100"/>
		</g>
	</g>
	<g transform="translate(980,490) scale(0.35,0.35)">
		<g transform="">
			<rect x="0" y="-34.3" class="st0" width="100" height="100"/>
		</g>
	</g>
	<g transform="translate(35,525) scale(0.35,0.35)">
		<g transform="">
			<rect x="0" y="-34.3" class="st0" width="100" height="100"/>
		</g>
	</g>
	<g transform="translate(70,525) scale(0.35,0.35)">
		<g transform="">
			<rect x="0" y="-34.3" class="st0" width="100" height="100"/>
		</g>
	</g>
	<g transform="translate(140,525) scale(0.35,0.35)">
		<g transform="">
			<rect x="0" y="-34.3" class="st0" width="100" height="100"/>
		</g>
	</g>
	<g transform="translate(280,525) scale(0.35,0.35)">
		<g transform="">
			<rect x="0" y="-34.3" class="st0" width="100" height="100"/>
		</g>
	</g>
	<g transform="translate(315,525) scale(0.35,0.35)">
		<g transform="">
			<rect x="0" y="-34.3" class="st0" width="100" height="100"/>
		</g>
	</g>
	<g transform="translate(350,525) scale(0.35,0.35)">
		<g transform="">
			<rect x="0" y="-34.3" class="st0" width="100" height="100"/>
		</g>
	</g>
	<g transform="translate(385,525) scale(0.35,0.35)">
		<g transform="">
			<rect x="0" y="-34.3" class="st0" width="100" height="100"/>
		</g>
	</g>
	<g transform="translate(420,525) scale(0.35,0.35)">
		<g transform="">
			<rect x="0" y="-34.3" class="st0" width="100" height="100"/>
		</g>
	</g>
	<g transform="translate(455,525) scale(0.35,0.35)">
		<g transform="">
			<rect x="0" y="-34.3" class="st0" width="100" height="100"/>
		</g>
	</g>
	<g transform="translate(490,525) scale(0.35,0.35)">
		<g transform="">
			<rect x="0" y="-34.3" class="st0" width="100" height="100"/>
		</g>
	</g>
	<g transform="translate(595,525) scale(0.35,0.35)">
		<g transform="">
			<rect x="0" y="-34.3" class="st0" width="100" height="100"/>
		</g>
	</g>
	<g transform="translate(665,525) scale(0.35,0.35)">
		<g transform="">
			<rect x="0" y="-34.3" class="st0" width="100" height="100"/>
		</g>
	</g>
	<g transform="translate(700,525) scale(0.35,0.35)">
		<g transform="">
			<rect x="0" y="-34.3" class="st0" width="100" height="100"/>
		</g>
	</g>
	<g transform="translate(735,525) scale(0.35,0.35)">
		<g transform="">
			<rect x="0" y="-34.3" class="st0" width="100" height="100"/>
		</g>
	</g>
	<g transform="translate(770,525) scale(0.35,0.35)">
		<g transform="">
			<rect x="0" y="-34.3" class="st0" width="100" height="100"/>
		</g>
	</g>
	<g transform="translate(805,525) scale(0.35,0.35)">
		<g transform="">
			<rect x="0" y="-34.3" class="st0" width="100" height="100"/>
		</g>
	</g>
	<g transform="translate(840,525) scale(0.35,0.35)">
		<g transform="">
			<rect x="0" y="-34.3" class="st0" width="100" height="100"/>
		</g>
	</g>
	<g transform="translate(875,525) scale(0.35,0.35)">
		<g transform="">
			<rect x="0" y="-34.3" class="st0" width="100" height="100"/>
		</g>
	</g>
	<g transform="translate(945,525) scale(0.35,0.35)">
		<g transform="">
			<rect x="0" y="-34.3" class="st0" width="100" height="100"/>
		</g>
	</g>
	<g transform="translate(0,560) scale(0.35,0.35)">
		<g transform="">
			<rect x="0" y="-34.3" class="st0" width="100" height="100"/>
		</g>
	</g>
	<g transform="translate(70,560) scale(0.35,0.35)">
		<g transform="">
			<rect x="0" y="-34.3" class="st0" width="100" height="100"/>
		</g>
	</g>
	<g transform="translate(210,560) scale(0.35,0.35)">
		<g transform="">
			<rect x="0" y="-34.3" class="st0" width="100" height="100"/>
		</g>
	</g>
	<g transform="translate(350,560) scale(0.35,0.35)">
		<g transform="">
			<rect x="0" y="-34.3" class="st0" width="100" height="100"/>
		</g>
	</g>
	<g transform="translate(385,560) scale(0.35,0.35)">
		<g transform="">
			<rect x="0" y="-34.3" class="st0" width="100" height="100"/>
		</g>
	</g>
	<g transform="translate(455,560) scale(0.35,0.35)">
		<g transform="">
			<rect x="0" y="-34.3" class="st0" width="100" height="100"/>
		</g>
	</g>
	<g transform="translate(490,560) scale(0.35,0.35)">
		<g transform="">
			<rect x="0" y="-34.3" class="st0" width="100" height="100"/>
		</g>
	</g>
	<g transform="translate(560,560) scale(0.35,0.35)">
		<g transform="">
			<rect x="0" y="-34.3" class="st0" width="100" height="100"/>
		</g>
	</g>
	<g transform="translate(595,560) scale(0.35,0.35)">
		<g transform="">
			<rect x="0" y="-34.3" class="st0" width="100" height="100"/>
		</g>
	</g>
	<g transform="translate(665,560) scale(0.35,0.35)">
		<g transform="">
			<rect x="0" y="-34.3" class="st0" width="100" height="100"/>
		</g>
	</g>
	<g transform="translate(735,560) scale(0.35,0.35)">
		<g transform="">
			<rect x="0" y="-34.3" class="st0" width="100" height="100"/>
		</g>
	</g>
	<g transform="translate(805,560) scale(0.35,0.35)">
		<g transform="">
			<rect x="0" y="-34.3" class="st0" width="100" height="100"/>
		</g>
	</g>
	<g transform="translate(945,560) scale(0.35,0.35)">
		<g transform="">
			<rect x="0" y="-34.3" class="st0" width="100" height="100"/>
		</g>
	</g>
	<g transform="translate(105,595) scale(0.35,0.35)">
		<g transform="">
			<rect x="0" y="-34.3" class="st0" width="100" height="100"/>
		</g>
	</g>
	<g transform="translate(175,595) scale(0.35,0.35)">
		<g transform="">
			<rect x="0" y="-34.3" class="st0" width="100" height="100"/>
		</g>
	</g>
	<g transform="translate(350,595) scale(0.35,0.35)">
		<g transform="">
			<rect x="0" y="-34.3" class="st0" width="100" height="100"/>
		</g>
	</g>
	<g transform="translate(385,595) scale(0.35,0.35)">
		<g transform="">
			<rect x="0" y="-34.3" class="st0" width="100" height="100"/>
		</g>
	</g>
	<g transform="translate(490,595) scale(0.35,0.35)">
		<g transform="">
			<rect x="0" y="-34.3" class="st0" width="100" height="100"/>
		</g>
	</g>
	<g transform="translate(560,595) scale(0.35,0.35)">
		<g transform="">
			<rect x="0" y="-34.3" class="st0" width="100" height="100"/>
		</g>
	</g>
	<g transform="translate(735,595) scale(0.35,0.35)">
		<g transform="">
			<rect x="0" y="-34.3" class="st0" width="100" height="100"/>
		</g>
	</g>
	<g transform="translate(770,595) scale(0.35,0.35)">
		<g transform="">
			<rect x="0" y="-34.3" class="st0" width="100" height="100"/>
		</g>
	</g>
	<g transform="translate(805,595) scale(0.35,0.35)">
		<g transform="">
			<rect x="0" y="-34.3" class="st0" width="100" height="100"/>
		</g>
	</g>
	<g transform="translate(875,595) scale(0.35,0.35)">
		<g transform="">
			<rect x="0" y="-34.3" class="st0" width="100" height="100"/>
		</g>
	</g>
	<g transform="translate(980,595) scale(0.35,0.35)">
		<g transform="">
			<rect x="0" y="-34.3" class="st0" width="100" height="100"/>
		</g>
	</g>
	<g transform="translate(0,630) scale(0.35,0.35)">
		<g transform="">
			<rect x="0" y="-34.3" class="st0" width="100" height="100"/>
		</g>
	</g>
	<g transform="translate(105,630) scale(0.35,0.35)">
		<g transform="">
			<rect x="0" y="-34.3" class="st0" width="100" height="100"/>
		</g>
	</g>
	<g transform="translate(175,630) scale(0.35,0.35)">
		<g transform="">
			<rect x="0" y="-34.3" class="st0" width="100" height="100"/>
		</g>
	</g>
	<g transform="translate(210,630) scale(0.35,0.35)">
		<g transform="">
			<rect x="0" y="-34.3" class="st0" width="100" height="100"/>
		</g>
	</g>
	<g transform="translate(245,630) scale(0.35,0.35)">
		<g transform="">
			<rect x="0" y="-34.3" class="st0" width="100" height="100"/>
		</g>
	</g>
	<g transform="translate(350,630) scale(0.35,0.35)">
		<g transform="">
			<rect x="0" y="-34.3" class="st0" width="100" height="100"/>
		</g>
	</g>
	<g transform="translate(455,630) scale(0.35,0.35)">
		<g transform="">
			<rect x="0" y="-34.3" class="st0" width="100" height="100"/>
		</g>
	</g>
	<g transform="translate(560,630) scale(0.35,0.35)">
		<g transform="">
			<rect x="0" y="-34.3" class="st0" width="100" height="100"/>
		</g>
	</g>
	<g transform="translate(700,630) scale(0.35,0.35)">
		<g transform="">
			<rect x="0" y="-34.3" class="st0" width="100" height="100"/>
		</g>
	</g>
	<g transform="translate(735,630) scale(0.35,0.35)">
		<g transform="">
			<rect x="0" y="-34.3" class="st0" width="100" height="100"/>
		</g>
	</g>
	<g transform="translate(770,630) scale(0.35,0.35)">
		<g transform="">
			<rect x="0" y="-34.3" class="st0" width="100" height="100"/>
		</g>
	</g>
	<g transform="translate(805,630) scale(0.35,0.35)">
		<g transform="">
			<rect x="0" y="-34.3" class="st0" width="100" height="100"/>
		</g>
	</g>
	<g transform="translate(945,630) scale(0.35,0.35)">
		<g transform="">
			<rect x="0" y="-34.3" class="st0" width="100" height="100"/>
		</g>
	</g>
	<g transform="translate(980,630) scale(0.35,0.35)">
		<g transform="">
			<rect x="0" y="-34.3" class="st0" width="100" height="100"/>
		</g>
	</g>
	<g transform="translate(70,665) scale(0.35,0.35)">
		<g transform="">
			<rect x="0" y="-34.3" class="st0" width="100" height="100"/>
		</g>
	</g>
	<g transform="translate(105,665) scale(0.35,0.35)">
		<g transform="">
			<rect x="0" y="-34.3" class="st0" width="100" height="100"/>
		</g>
	</g>
	<g transform="translate(140,665) scale(0.35,0.35)">
		<g transform="">
			<rect x="0" y="-34.3" class="st0" width="100" height="100"/>
		</g>
	</g>
	<g transform="translate(245,665) scale(0.35,0.35)">
		<g transform="">
			<rect x="0" y="-34.3" class="st0" width="100" height="100"/>
		</g>
	</g>
	<g transform="translate(280,665) scale(0.35,0.35)">
		<g transform="">
			<rect x="0" y="-34.3" class="st0" width="100" height="100"/>
		</g>
	</g>
	<g transform="translate(420,665) scale(0.35,0.35)">
		<g transform="">
			<rect x="0" y="-34.3" class="st0" width="100" height="100"/>
		</g>
	</g>
	<g transform="translate(455,665) scale(0.35,0.35)">
		<g transform="">
			<rect x="0" y="-34.3" class="st0" width="100" height="100"/>
		</g>
	</g>
	<g transform="translate(525,665) scale(0.35,0.35)">
		<g transform="">
			<rect x="0" y="-34.3" class="st0" width="100" height="100"/>
		</g>
	</g>
	<g transform="translate(560,665) scale(0.35,0.35)">
		<g transform="">
			<rect x="0" y="-34.3" class="st0" width="100" height="100"/>
		</g>
	</g>
	<g transform="translate(595,665) scale(0.35,0.35)">
		<g transform="">
			<rect x="0" y="-34.3" class="st0" width="100" height="100"/>
		</g>
	</g>
	<g transform="translate(945,665) scale(0.35,0.35)">
		<g transform="">
			<rect x="0" y="-34.3" class="st0" width="100" height="100"/>
		</g>
	</g>
	<g transform="translate(980,665) scale(0.35,0.35)">
		<g transform="">
			<rect x="0" y="-34.3" class="st0" width="100" height="100"/>
		</g>
	</g>
	<g transform="translate(0,700) scale(0.35,0.35)">
		<g transform="">
			<rect x="0" y="-34.3" class="st0" width="100" height="100"/>
		</g>
	</g>
	<g transform="translate(70,700) scale(0.35,0.35)">
		<g transform="">
			<rect x="0" y="-34.3" class="st0" width="100" height="100"/>
		</g>
	</g>
	<g transform="translate(105,700) scale(0.35,0.35)">
		<g transform="">
			<rect x="0" y="-34.3" class="st0" width="100" height="100"/>
		</g>
	</g>
	<g transform="translate(175,700) scale(0.35,0.35)">
		<g transform="">
			<rect x="0" y="-34.3" class="st0" width="100" height="100"/>
		</g>
	</g>
	<g transform="translate(210,700) scale(0.35,0.35)">
		<g transform="">
			<rect x="0" y="-34.3" class="st0" width="100" height="100"/>
		</g>
	</g>
	<g transform="translate(315,700) scale(0.35,0.35)">
		<g transform="">
			<rect x="0" y="-34.3" class="st0" width="100" height="100"/>
		</g>
	</g>
	<g transform="translate(385,700) scale(0.35,0.35)">
		<g transform="">
			<rect x="0" y="-34.3" class="st0" width="100" height="100"/>
		</g>
	</g>
	<g transform="translate(490,700) scale(0.35,0.35)">
		<g transform="">
			<rect x="0" y="-34.3" class="st0" width="100" height="100"/>
		</g>
	</g>
	<g transform="translate(665,700) scale(0.35,0.35)">
		<g transform="">
			<rect x="0" y="-34.3" class="st0" width="100" height="100"/>
		</g>
	</g>
	<g transform="translate(700,700) scale(0.35,0.35)">
		<g transform="">
			<rect x="0" y="-34.3" class="st0" width="100" height="100"/>
		</g>
	</g>
	<g transform="translate(735,700) scale(0.35,0.35)">
		<g transform="">
			<rect x="0" y="-34.3" class="st0" width="100" height="100"/>
		</g>
	</g>
	<g transform="translate(770,700) scale(0.35,0.35)">
		<g transform="">
			<rect x="0" y="-34.3" class="st0" width="100" height="100"/>
		</g>
	</g>
	<g transform="translate(805,700) scale(0.35,0.35)">
		<g transform="">
			<rect x="0" y="-34.3" class="st0" width="100" height="100"/>
		</g>
	</g>
	<g transform="translate(840,700) scale(0.35,0.35)">
		<g transform="">
			<rect x="0" y="-34.3" class="st0" width="100" height="100"/>
		</g>
	</g>
	<g transform="translate(910,700) scale(0.35,0.35)">
		<g transform="">
			<rect x="0" y="-34.3" class="st0" width="100" height="100"/>
		</g>
	</g>
	<g transform="translate(280,735) scale(0.35,0.35)">
		<g transform="">
			<rect x="0" y="-34.3" class="st0" width="100" height="100"/>
		</g>
	</g>
	<g transform="translate(420,735) scale(0.35,0.35)">
		<g transform="">
			<rect x="0" y="-34.3" class="st0" width="100" height="100"/>
		</g>
	</g>
	<g transform="translate(455,735) scale(0.35,0.35)">
		<g transform="">
			<rect x="0" y="-34.3" class="st0" width="100" height="100"/>
		</g>
	</g>
	<g transform="translate(560,735) scale(0.35,0.35)">
		<g transform="">
			<rect x="0" y="-34.3" class="st0" width="100" height="100"/>
		</g>
	</g>
	<g transform="translate(665,735) scale(0.35,0.35)">
		<g transform="">
			<rect x="0" y="-34.3" class="st0" width="100" height="100"/>
		</g>
	</g>
	<g transform="translate(700,735) scale(0.35,0.35)">
		<g transform="">
			<rect x="0" y="-34.3" class="st0" width="100" height="100"/>
		</g>
	</g>
	<g transform="translate(840,735) scale(0.35,0.35)">
		<g transform="">
			<rect x="0" y="-34.3" class="st0" width="100" height="100"/>
		</g>
	</g>
	<g transform="translate(910,735) scale(0.35,0.35)">
		<g transform="">
			<rect x="0" y="-34.3" class="st0" width="100" height="100"/>
		</g>
	</g>
	<g transform="translate(945,735) scale(0.35,0.35)">
		<g transform="">
			<rect x="0" y="-34.3" class="st0" width="100" height="100"/>
		</g>
	</g>
	<g transform="translate(980,735) scale(0.35,0.35)">
		<g transform="">
			<rect x="0" y="-34.3" class="st0" width="100" height="100"/>
		</g>
	</g>
	<g transform="translate(420,770) scale(0.35,0.35)">
		<g transform="">
			<rect x="0" y="-34.3" class="st0" width="100" height="100"/>
		</g>
	</g>
	<g transform="translate(455,770) scale(0.35,0.35)">
		<g transform="">
			<rect x="0" y="-34.3" class="st0" width="100" height="100"/>
		</g>
	</g>
	<g transform="translate(490,770) scale(0.35,0.35)">
		<g transform="">
			<rect x="0" y="-34.3" class="st0" width="100" height="100"/>
		</g>
	</g>
	<g transform="translate(560,770) scale(0.35,0.35)">
		<g transform="">
			<rect x="0" y="-34.3" class="st0" width="100" height="100"/>
		</g>
	</g>
	<g transform="translate(595,770) scale(0.35,0.35)">
		<g transform="">
			<rect x="0" y="-34.3" class="st0" width="100" height="100"/>
		</g>
	</g>
	<g transform="translate(700,770) scale(0.35,0.35)">
		<g transform="">
			<rect x="0" y="-34.3" class="st0" width="100" height="100"/>
		</g>
	</g>
	<g transform="translate(770,770) scale(0.35,0.35)">
		<g transform="">
			<rect x="0" y="-34.3" class="st0" width="100" height="100"/>
		</g>
	</g>
	<g transform="translate(840,770) scale(0.35,0.35)">
		<g transform="">
			<rect x="0" y="-34.3" class="st0" width="100" height="100"/>
		</g>
	</g>
	<g transform="translate(945,770) scale(0.35,0.35)">
		<g transform="">
			<rect x="0" y="-34.3" class="st0" width="100" height="100"/>
		</g>
	</g>
	<g transform="translate(280,805) scale(0.35,0.35)">
		<g transform="">
			<rect x="0" y="-34.3" class="st0" width="100" height="100"/>
		</g>
	</g>
	<g transform="translate(315,805) scale(0.35,0.35)">
		<g transform="">
			<rect x="0" y="-34.3" class="st0" width="100" height="100"/>
		</g>
	</g>
	<g transform="translate(350,805) scale(0.35,0.35)">
		<g transform="">
			<rect x="0" y="-34.3" class="st0" width="100" height="100"/>
		</g>
	</g>
	<g transform="translate(385,805) scale(0.35,0.35)">
		<g transform="">
			<rect x="0" y="-34.3" class="st0" width="100" height="100"/>
		</g>
	</g>
	<g transform="translate(420,805) scale(0.35,0.35)">
		<g transform="">
			<rect x="0" y="-34.3" class="st0" width="100" height="100"/>
		</g>
	</g>
	<g transform="translate(455,805) scale(0.35,0.35)">
		<g transform="">
			<rect x="0" y="-34.3" class="st0" width="100" height="100"/>
		</g>
	</g>
	<g transform="translate(525,805) scale(0.35,0.35)">
		<g transform="">
			<rect x="0" y="-34.3" class="st0" width="100" height="100"/>
		</g>
	</g>
	<g transform="translate(700,805) scale(0.35,0.35)">
		<g transform="">
			<rect x="0" y="-34.3" class="st0" width="100" height="100"/>
		</g>
	</g>
	<g transform="translate(840,805) scale(0.35,0.35)">
		<g transform="">
			<rect x="0" y="-34.3" class="st0" width="100" height="100"/>
		</g>
	</g>
	<g transform="translate(875,805) scale(0.35,0.35)">
		<g transform="">
			<rect x="0" y="-34.3" class="st0" width="100" height="100"/>
		</g>
	</g>
	<g transform="translate(910,805) scale(0.35,0.35)">
		<g transform="">
			<rect x="0" y="-34.3" class="st0" width="100" height="100"/>
		</g>
	</g>
	<g transform="translate(945,805) scale(0.35,0.35)">
		<g transform="">
			<rect x="0" y="-34.3" class="st0" width="100" height="100"/>
		</g>
	</g>
	<g transform="translate(315,840) scale(0.35,0.35)">
		<g transform="">
			<rect x="0" y="-34.3" class="st0" width="100" height="100"/>
		</g>
	</g>
	<g transform="translate(490,840) scale(0.35,0.35)">
		<g transform="">
			<rect x="0" y="-34.3" class="st0" width="100" height="100"/>
		</g>
	</g>
	<g transform="translate(595,840) scale(0.35,0.35)">
		<g transform="">
			<rect x="0" y="-34.3" class="st0" width="100" height="100"/>
		</g>
	</g>
	<g transform="translate(630,840) scale(0.35,0.35)">
		<g transform="">
			<rect x="0" y="-34.3" class="st0" width="100" height="100"/>
		</g>
	</g>
	<g transform="translate(700,840) scale(0.35,0.35)">
		<g transform="">
			<rect x="0" y="-34.3" class="st0" width="100" height="100"/>
		</g>
	</g>
	<g transform="translate(735,840) scale(0.35,0.35)">
		<g transform="">
			<rect x="0" y="-34.3" class="st0" width="100" height="100"/>
		</g>
	</g>
	<g transform="translate(770,840) scale(0.35,0.35)">
		<g transform="">
			<rect x="0" y="-34.3" class="st0" width="100" height="100"/>
		</g>
	</g>
	<g transform="translate(805,840) scale(0.35,0.35)">
		<g transform="">
			<rect x="0" y="-34.3" class="st0" width="100" height="100"/>
		</g>
	</g>
	<g transform="translate(840,840) scale(0.35,0.35)">
		<g transform="">
			<rect x="0" y="-34.3" class="st0" width="100" height="100"/>
		</g>
	</g>
	<g transform="translate(280,875) scale(0.35,0.35)">
		<g transform="">
			<rect x="0" y="-34.3" class="st0" width="100" height="100"/>
		</g>
	</g>
	<g transform="translate(315,875) scale(0.35,0.35)">
		<g transform="">
			<rect x="0" y="-34.3" class="st0" width="100" height="100"/>
		</g>
	</g>
	<g transform="translate(350,875) scale(0.35,0.35)">
		<g transform="">
			<rect x="0" y="-34.3" class="st0" width="100" height="100"/>
		</g>
	</g>
	<g transform="translate(385,875) scale(0.35,0.35)">
		<g transform="">
			<rect x="0" y="-34.3" class="st0" width="100" height="100"/>
		</g>
	</g>
	<g transform="translate(455,875) scale(0.35,0.35)">
		<g transform="">
			<rect x="0" y="-34.3" class="st0" width="100" height="100"/>
		</g>
	</g>
	<g transform="translate(490,875) scale(0.35,0.35)">
		<g transform="">
			<rect x="0" y="-34.3" class="st0" width="100" height="100"/>
		</g>
	</g>
	<g transform="translate(560,875) scale(0.35,0.35)">
		<g transform="">
			<rect x="0" y="-34.3" class="st0" width="100" height="100"/>
		</g>
	</g>
	<g transform="translate(595,875) scale(0.35,0.35)">
		<g transform="">
			<rect x="0" y="-34.3" class="st0" width="100" height="100"/>
		</g>
	</g>
	<g transform="translate(630,875) scale(0.35,0.35)">
		<g transform="">
			<rect x="0" y="-34.3" class="st0" width="100" height="100"/>
		</g>
	</g>
	<g transform="translate(770,875) scale(0.35,0.35)">
		<g transform="">
			<rect x="0" y="-34.3" class="st0" width="100" height="100"/>
		</g>
	</g>
	<g transform="translate(805,875) scale(0.35,0.35)">
		<g transform="">
			<rect x="0" y="-34.3" class="st0" width="100" height="100"/>
		</g>
	</g>
	<g transform="translate(840,875) scale(0.35,0.35)">
		<g transform="">
			<rect x="0" y="-34.3" class="st0" width="100" height="100"/>
		</g>
	</g>
	<g transform="translate(875,875) scale(0.35,0.35)">
		<g transform="">
			<rect x="0" y="-34.3" class="st0" width="100" height="100"/>
		</g>
	</g>
	<g transform="translate(910,875) scale(0.35,0.35)">
		<g transform="">
			<rect x="0" y="-34.3" class="st0" width="100" height="100"/>
		</g>
	</g>
	<g transform="translate(945,875) scale(0.35,0.35)">
		<g transform="">
			<rect x="0" y="-34.3" class="st0" width="100" height="100"/>
		</g>
	</g>
	<g transform="translate(315,910) scale(0.35,0.35)">
		<g transform="">
			<rect x="0" y="-34.3" class="st0" width="100" height="100"/>
		</g>
	</g>
	<g transform="translate(350,910) scale(0.35,0.35)">
		<g transform="">
			<rect x="0" y="-34.3" class="st0" width="100" height="100"/>
		</g>
	</g>
	<g transform="translate(385,910) scale(0.35,0.35)">
		<g transform="">
			<rect x="0" y="-34.3" class="st0" width="100" height="100"/>
		</g>
	</g>
	<g transform="translate(420,910) scale(0.35,0.35)">
		<g transform="">
			<rect x="0" y="-34.3" class="st0" width="100" height="100"/>
		</g>
	</g>
	<g transform="translate(455,910) scale(0.35,0.35)">
		<g transform="">
			<rect x="0" y="-34.3" class="st0" width="100" height="100"/>
		</g>
	</g>
	<g transform="translate(490,910) scale(0.35,0.35)">
		<g transform="">
			<rect x="0" y="-34.3" class="st0" width="100" height="100"/>
		</g>
	</g>
	<g transform="translate(560,910) scale(0.35,0.35)">
		<g transform="">
			<rect x="0" y="-34.3" class="st0" width="100" height="100"/>
		</g>
	</g>
	<g transform="translate(630,910) scale(0.35,0.35)">
		<g transform="">
			<rect x="0" y="-34.3" class="st0" width="100" height="100"/>
		</g>
	</g>
	<g transform="translate(665,910) scale(0.35,0.35)">
		<g transform="">
			<rect x="0" y="-34.3" class="st0" width="100" height="100"/>
		</g>
	</g>
	<g transform="translate(840,910) scale(0.35,0.35)">
		<g transform="">
			<rect x="0" y="-34.3" class="st0" width="100" height="100"/>
		</g>
	</g>
	<g transform="translate(875,910) scale(0.35,0.35)">
		<g transform="">
			<rect x="0" y="-34.3" class="st0" width="100" height="100"/>
		</g>
	</g>
	<g transform="translate(910,910) scale(0.35,0.35)">
		<g transform="">
			<rect x="0" y="-34.3" class="st0" width="100" height="100"/>
		</g>
	</g>
	<g transform="translate(980,910) scale(0.35,0.35)">
		<g transform="">
			<rect x="0" y="-34.3" class="st0" width="100" height="100"/>
		</g>
	</g>
	<g transform="translate(315,945) scale(0.35,0.35)">
		<g transform="">
			<rect x="0" y="-34.3" class="st0" width="100" height="100"/>
		</g>
	</g>
	<g transform="translate(350,945) scale(0.35,0.35)">
		<g transform="">
			<rect x="0" y="-34.3" class="st0" width="100" height="100"/>
		</g>
	</g>
	<g transform="translate(420,945) scale(0.35,0.35)">
		<g transform="">
			<rect x="0" y="-34.3" class="st0" width="100" height="100"/>
		</g>
	</g>
	<g transform="translate(455,945) scale(0.35,0.35)">
		<g transform="">
			<rect x="0" y="-34.3" class="st0" width="100" height="100"/>
		</g>
	</g>
	<g transform="translate(490,945) scale(0.35,0.35)">
		<g transform="">
			<rect x="0" y="-34.3" class="st0" width="100" height="100"/>
		</g>
	</g>
	<g transform="translate(525,945) scale(0.35,0.35)">
		<g transform="">
			<rect x="0" y="-34.3" class="st0" width="100" height="100"/>
		</g>
	</g>
	<g transform="translate(595,945) scale(0.35,0.35)">
		<g transform="">
			<rect x="0" y="-34.3" class="st0" width="100" height="100"/>
		</g>
	</g>
	<g transform="translate(700,945) scale(0.35,0.35)">
		<g transform="">
			<rect x="0" y="-34.3" class="st0" width="100" height="100"/>
		</g>
	</g>
	<g transform="translate(735,945) scale(0.35,0.35)">
		<g transform="">
			<rect x="0" y="-34.3" class="st0" width="100" height="100"/>
		</g>
	</g>
	<g transform="translate(770,945) scale(0.35,0.35)">
		<g transform="">
			<rect x="0" y="-34.3" class="st0" width="100" height="100"/>
		</g>
	</g>
	<g transform="translate(805,945) scale(0.35,0.35)">
		<g transform="">
			<rect x="0" y="-34.3" class="st0" width="100" height="100"/>
		</g>
	</g>
	<g transform="translate(840,945) scale(0.35,0.35)">
		<g transform="">
			<rect x="0" y="-34.3" class="st0" width="100" height="100"/>
		</g>
	</g>
	<g transform="translate(945,945) scale(0.35,0.35)">
		<g transform="">
			<rect x="0" y="-34.3" class="st0" width="100" height="100"/>
		</g>
	</g>
	<g transform="translate(280,980) scale(0.35,0.35)">
		<g transform="">
			<rect x="0" y="-34.3" class="st0" width="100" height="100"/>
		</g>
	</g>
	<g transform="translate(315,980) scale(0.35,0.35)">
		<g transform="">
			<rect x="0" y="-34.3" class="st0" width="100" height="100"/>
		</g>
	</g>
	<g transform="translate(385,980) scale(0.35,0.35)">
		<g transform="">
			<rect x="0" y="-34.3" class="st0" width="100" height="100"/>
		</g>
	</g>
	<g transform="translate(420,980) scale(0.35,0.35)">
		<g transform="">
			<rect x="0" y="-34.3" class="st0" width="100" height="100"/>
		</g>
	</g>
	<g transform="translate(455,980) scale(0.35,0.35)">
		<g transform="">
			<rect x="0" y="-34.3" class="st0" width="100" height="100"/>
		</g>
	</g>
	<g transform="translate(560,980) scale(0.35,0.35)">
		<g transform="">
			<rect x="0" y="-34.3" class="st0" width="100" height="100"/>
		</g>
	</g>
	<g transform="translate(595,980) scale(0.35,0.35)">
		<g transform="">
			<rect x="0" y="-34.3" class="st0" width="100" height="100"/>
		</g>
	</g>
	<g transform="translate(630,980) scale(0.35,0.35)">
		<g transform="">
			<rect x="0" y="-34.3" class="st0" width="100" height="100"/>
		</g>
	</g>
	<g transform="translate(700,980) scale(0.35,0.35)">
		<g transform="">
			<rect x="0" y="-34.3" class="st0" width="100" height="100"/>
		</g>
	</g>
	<g transform="translate(735,980) scale(0.35,0.35)">
		<g transform="">
			<rect x="0" y="-34.3" class="st0" width="100" height="100"/>
		</g>
	</g>
	<g transform="translate(805,980) scale(0.35,0.35)">
		<g transform="">
			<rect x="0" y="-34.3" class="st0" width="100" height="100"/>
		</g>
	</g>
	<g transform="translate(875,980) scale(0.35,0.35)">
		<g transform="">
			<rect x="0" y="-34.3" class="st0" width="100" height="100"/>
		</g>
	</g>
	<g transform="translate(945,980) scale(0.35,0.35)">
		<g transform="">
			<rect x="0" y="-34.3" class="st0" width="100" height="100"/>
		</g>
	</g>
	<g transform="translate(0,0) scale(2.45, 2.45)">
		<g transform="">
			<g>
				<rect x="15" y="10.1" class="st1" width="70" height="70"/>
				<path class="st0" d="M85-4.9H15H0v15v70v15h15h70h15v-15v-70v-15C100-4.9,85-4.9,85-4.9z M85,80.1H15v-70h70V80.1z"/>
			</g>
		</g>
	</g>
	<g transform="translate(770,0) scale(2.45, 2.45)">
		<g transform="">
			<g>
				<rect x="15" y="10.1" class="st1" width="70" height="70"/>
				<path class="st0" d="M85-4.9H15H0v15v70v15h15h70h15v-15v-70v-15C100-4.9,85-4.9,85-4.9z M85,80.1H15v-70h70V80.1z"/>
			</g>
		</g>
	</g>
	<g transform="translate(0,770) scale(2.45, 2.45)">
		<g transform="">
			<g>
				<rect x="15" y="10.1" class="st1" width="70" height="70"/>
				<path class="st0" d="M85-4.9H15H0v15v70v15h15h70h15v-15v-70v-15C100-4.9,85-4.9,85-4.9z M85,80.1H15v-70h70V80.1z"/>
			</g>
		</g>
	</g>
	<g transform="translate(70,70) scale(1.05, 1.05)">
		<g transform="">
			<rect x="0" y="-11.4" class="st0" width="100" height="100"/>
		</g>
	</g>
	<g transform="translate(840,70) scale(1.05, 1.05)">
		<g transform="">
			<rect x="0" y="-11.4" class="st0" width="100" height="100"/>
		</g>
	</g>
	<g transform="translate(70,840) scale(1.05, 1.05)">
		<g transform="">
			<rect x="0" y="-11.4" class="st0" width="100" height="100"/>
		</g>
	</g>
</g>
<g class="st2">
	<path d="M49.1,1169.7V1136h4.5v13.8h17.5V1136h4.5v33.7h-4.5v-15.9H53.6v15.9H49.1z"/>
	<path d="M91.6,1169.7V1140H80.5v-4h26.7v4H96.1v29.7H91.6z"/>
	<path d="M120.4,1169.7V1140h-11.1v-4H136v4h-11.2v29.7H120.4z"/>
	<path d="M140.6,1169.7V1136h12.7c2.2,0,3.9,0.1,5.1,0.3c1.7,0.3,3,0.8,4.2,1.6c1.1,0.8,2,1.9,2.7,3.3c0.7,1.4,1,2.9,1,4.6
		c0,2.9-0.9,5.3-2.7,7.3s-5.1,3-9.9,3H145v13.7H140.6z M145,1152h8.7c2.9,0,4.9-0.5,6.1-1.6s1.8-2.6,1.8-4.5c0-1.4-0.4-2.6-1.1-3.6
		c-0.7-1-1.7-1.7-2.8-2c-0.8-0.2-2.1-0.3-4.2-0.3H145V1152z"/>
	<path d="M170.5,1158.9l4.2-0.4c0.2,1.7,0.7,3.1,1.4,4.2c0.7,1.1,1.9,2,3.4,2.6s3.3,1,5.2,1c1.7,0,3.2-0.3,4.5-0.8
		c1.3-0.5,2.3-1.2,2.9-2.1s1-1.8,1-2.9c0-1.1-0.3-2-0.9-2.8c-0.6-0.8-1.6-1.5-3-2c-0.9-0.4-2.9-0.9-6-1.6c-3.1-0.7-5.3-1.4-6.5-2.1
		c-1.6-0.8-2.8-1.9-3.6-3.1s-1.2-2.6-1.2-4.2c0-1.7,0.5-3.3,1.4-4.8s2.4-2.6,4.2-3.4c1.9-0.8,3.9-1.1,6.2-1.1c2.5,0,4.7,0.4,6.6,1.2
		s3.4,2,4.4,3.6c1,1.6,1.6,3.3,1.7,5.3l-4.3,0.3c-0.2-2.1-1-3.7-2.3-4.8c-1.3-1.1-3.3-1.6-5.9-1.6c-2.7,0-4.7,0.5-5.9,1.5
		c-1.2,1-1.9,2.2-1.9,3.6c0,1.2,0.4,2.2,1.3,3c0.9,0.8,3.1,1.6,6.7,2.4c3.6,0.8,6.1,1.5,7.5,2.2c2,0.9,3.4,2.1,4.3,3.4
		c0.9,1.4,1.4,3,1.4,4.8c0,1.8-0.5,3.5-1.5,5.1c-1,1.6-2.5,2.8-4.4,3.7c-1.9,0.9-4.1,1.3-6.5,1.3c-3.1,0-5.6-0.4-7.7-1.3
		c-2.1-0.9-3.7-2.2-4.9-4C171.2,1163.1,170.5,1161.1,170.5,1158.9z"/>
	<path d="M204,1150v-4.7h4.7v4.7H204z M204,1169.7v-4.7h4.7v4.7H204z"/>
	<path d="M212.9,1170.3l9.8-34.9h3.3l-9.8,34.9H212.9z"/>
	<path d="M226,1170.3l9.8-34.9h3.3l-9.8,34.9H226z"/>
	<path d="M251.3,1169.7V1140h-11.1v-4h26.7v4h-11.2v29.7H251.3z"/>
	<path d="M272.2,1169.7V1136h4.5v33.7H272.2z"/>
	<path d="M284.5,1169.7V1136h4.6l17.7,26.5V1136h4.3v33.7h-4.6l-17.7-26.5v26.5H284.5z"/>
	<path d="M328.1,1169.7v-14.3l-13-19.4h5.4l6.6,10.2c1.2,1.9,2.4,3.8,3.4,5.7c1-1.8,2.2-3.7,3.7-6l6.5-9.9h5.2l-13.5,19.4v14.3
		H328.1z"/>
	<path d="M372.1,1136h4.5v19.5c0,3.4-0.4,6.1-1.2,8.1s-2.2,3.6-4.2,4.9c-2,1.2-4.6,1.9-7.9,1.9c-3.2,0-5.7-0.5-7.8-1.6
		c-2-1.1-3.4-2.7-4.3-4.7c-0.9-2.1-1.3-4.9-1.3-8.5V1136h4.5v19.5c0,2.9,0.3,5.1,0.8,6.5s1.5,2.5,2.8,3.2c1.3,0.8,2.9,1.1,4.9,1.1
		c3.3,0,5.6-0.7,7-2.2s2.1-4.3,2.1-8.6V1136z"/>
	<path d="M384.1,1169.7V1136h15c3,0,5.3,0.3,6.9,0.9c1.6,0.6,2.8,1.7,3.7,3.2c0.9,1.5,1.4,3.2,1.4,5.1c0,2.4-0.8,4.4-2.3,6
		s-3.9,2.7-7.2,3.1c1.2,0.6,2.1,1.1,2.7,1.7c1.3,1.2,2.5,2.7,3.7,4.5l5.9,9.2h-5.6l-4.5-7c-1.3-2-2.4-3.6-3.2-4.6
		c-0.8-1.1-1.6-1.8-2.3-2.3s-1.3-0.7-2-0.9c-0.5-0.1-1.3-0.2-2.5-0.2h-5.2v15H384.1z M388.5,1150.9h9.6c2,0,3.6-0.2,4.8-0.6
		c1.2-0.4,2-1.1,2.6-2c0.6-0.9,0.9-1.9,0.9-3c0-1.6-0.6-2.9-1.7-3.9c-1.2-1-3-1.5-5.5-1.5h-10.7V1150.9z"/>
	<path d="M417.8,1169.7V1136h4.5v29.7h16.6v4H417.8z"/>
	<path d="M444.8,1169.7v-4.7h4.7v4.7H444.8z"/>
	<path d="M481.3,1157.9l4.5,1.1c-0.9,3.7-2.6,6.5-5,8.4c-2.4,1.9-5.4,2.9-8.9,2.9c-3.6,0-6.6-0.7-8.9-2.2c-2.3-1.5-4-3.6-5.2-6.4
		c-1.2-2.8-1.8-5.8-1.8-9c0-3.5,0.7-6.6,2-9.2s3.3-4.6,5.7-6c2.5-1.4,5.2-2,8.2-2c3.4,0,6.2,0.9,8.5,2.6c2.3,1.7,3.9,4.1,4.8,7.2
		l-4.4,1c-0.8-2.5-1.9-4.2-3.4-5.4s-3.4-1.7-5.6-1.7c-2.6,0-4.8,0.6-6.5,1.9s-3,2.9-3.7,5c-0.7,2.1-1.1,4.3-1.1,6.5
		c0,2.9,0.4,5.4,1.3,7.5c0.8,2.1,2.1,3.7,3.9,4.8c1.8,1.1,3.7,1.6,5.7,1.6c2.5,0,4.6-0.7,6.3-2.2
		C479.6,1162.9,480.7,1160.7,481.3,1157.9z"/>
	<path d="M490,1153.3c0-5.6,1.5-10,4.5-13.1c3-3.2,6.9-4.8,11.6-4.8c3.1,0,5.9,0.7,8.4,2.2c2.5,1.5,4.4,3.6,5.7,6.2
		c1.3,2.7,2,5.7,2,9.1c0,3.4-0.7,6.5-2.1,9.2c-1.4,2.7-3.3,4.7-5.9,6.1c-2.5,1.4-5.3,2.1-8.2,2.1c-3.2,0-6-0.8-8.5-2.3
		c-2.5-1.5-4.4-3.6-5.7-6.3S490,1156.2,490,1153.3z M494.5,1153.4c0,4.1,1.1,7.3,3.3,9.6c2.2,2.3,4.9,3.5,8.2,3.5
		c3.4,0,6.1-1.2,8.3-3.5c2.2-2.4,3.3-5.7,3.3-10.1c0-2.7-0.5-5.1-1.4-7.2c-0.9-2-2.3-3.6-4.1-4.8c-1.8-1.1-3.8-1.7-6-1.7
		c-3.2,0-5.9,1.1-8.2,3.3C495.7,1144.7,494.5,1148.3,494.5,1153.4z"/>
	<path d="M527.8,1169.7V1136h6.7l8,23.9c0.7,2.2,1.3,3.9,1.6,5c0.4-1.2,1-3,1.8-5.4l8.1-23.5h6v33.7h-4.3v-28.2l-9.8,28.2h-4
		l-9.8-28.7v28.7H527.8z"/>
	<path d="M563.6,1170.3l9.8-34.9h3.3l-9.8,34.9H563.6z"/>
	<path d="M588.9,1169.7V1140h-11.1v-4h26.7v4h-11.2v29.7H588.9z"/>
	<path d="M609.2,1169.7V1136h4.5v13.8h17.5V1136h4.5v33.7h-4.5v-15.9h-17.5v15.9H609.2z"/>
	<path d="M643.2,1169.7V1136h24.4v4h-19.9v10.3h18.7v4h-18.7v11.5h20.7v4H643.2z"/>
	<path d="M680.4,1169.7l-8.9-33.7h4.6l5.1,22.1c0.6,2.3,1,4.6,1.4,6.9c0.9-3.6,1.4-5.7,1.5-6.2l6.4-22.8h5.4l4.8,17.1
		c1.2,4.2,2.1,8.2,2.6,11.9c0.4-2.1,1-4.6,1.7-7.3l5.3-21.7h4.5l-9.2,33.7h-4.3l-7.1-25.7c-0.6-2.1-1-3.5-1.1-4
		c-0.4,1.5-0.7,2.9-1,4l-7.2,25.7H680.4z"/>
	<path d="M717.6,1153.3c0-5.6,1.5-10,4.5-13.1c3-3.2,6.9-4.8,11.6-4.8c3.1,0,5.9,0.7,8.4,2.2c2.5,1.5,4.4,3.6,5.7,6.2
		c1.3,2.7,2,5.7,2,9.1c0,3.4-0.7,6.5-2.1,9.2c-1.4,2.7-3.3,4.7-5.9,6.1c-2.5,1.4-5.3,2.1-8.2,2.1c-3.2,0-6-0.8-8.5-2.3
		c-2.5-1.5-4.4-3.6-5.7-6.3S717.6,1156.2,717.6,1153.3z M722.2,1153.4c0,4.1,1.1,7.3,3.3,9.6c2.2,2.3,4.9,3.5,8.2,3.5
		c3.4,0,6.1-1.2,8.3-3.5c2.2-2.4,3.3-5.7,3.3-10.1c0-2.7-0.5-5.1-1.4-7.2c-0.9-2-2.3-3.6-4.1-4.8c-1.8-1.1-3.8-1.7-6-1.7
		c-3.2,0-5.9,1.1-8.2,3.3C723.3,1144.7,722.2,1148.3,722.2,1153.4z"/>
	<path d="M755.6,1169.7V1136h15c3,0,5.3,0.3,6.9,0.9c1.6,0.6,2.8,1.7,3.7,3.2c0.9,1.5,1.4,3.2,1.4,5.1c0,2.4-0.8,4.4-2.3,6
		s-3.9,2.7-7.2,3.1c1.2,0.6,2.1,1.1,2.7,1.7c1.3,1.2,2.5,2.7,3.7,4.5l5.9,9.2h-5.6l-4.5-7c-1.3-2-2.4-3.6-3.2-4.6
		c-0.8-1.1-1.6-1.8-2.3-2.3s-1.3-0.7-2-0.9c-0.5-0.1-1.3-0.2-2.5-0.2h-5.2v15H755.6z M760.1,1150.9h9.6c2,0,3.6-0.2,4.8-0.6
		c1.2-0.4,2-1.1,2.6-2c0.6-0.9,0.9-1.9,0.9-3c0-1.6-0.6-2.9-1.7-3.9c-1.2-1-3-1.5-5.5-1.5h-10.7V1150.9z"/>
	<path d="M789.4,1169.7V1136h4.5v29.7h16.6v4H789.4z"/>
	<path d="M815.8,1169.7V1136h11.6c2.6,0,4.6,0.2,6,0.5c1.9,0.4,3.6,1.2,4.9,2.4c1.8,1.5,3.1,3.4,4,5.8s1.3,5,1.3,8
		c0,2.6-0.3,4.8-0.9,6.8c-0.6,2-1.4,3.6-2.3,4.9c-0.9,1.3-2,2.3-3.1,3.1c-1.1,0.7-2.5,1.3-4,1.7c-1.6,0.4-3.4,0.6-5.4,0.6H815.8z
		 M820.3,1165.7h7.2c2.2,0,4-0.2,5.2-0.6c1.3-0.4,2.3-1,3-1.7c1.1-1.1,1.9-2.5,2.5-4.3c0.6-1.8,0.9-4,0.9-6.5c0-3.5-0.6-6.2-1.7-8.1
		c-1.2-1.9-2.6-3.2-4.2-3.8c-1.2-0.5-3.1-0.7-5.8-0.7h-7.1V1165.7z"/>
	<path d="M848.3,1158.9l4.2-0.4c0.2,1.7,0.7,3.1,1.4,4.2c0.7,1.1,1.9,2,3.4,2.6c1.5,0.7,3.3,1,5.2,1c1.7,0,3.2-0.3,4.5-0.8
		c1.3-0.5,2.3-1.2,2.9-2.1c0.6-0.9,1-1.8,1-2.9c0-1.1-0.3-2-0.9-2.8c-0.6-0.8-1.6-1.5-3-2c-0.9-0.4-2.9-0.9-6-1.6
		c-3.1-0.7-5.3-1.4-6.5-2.1c-1.6-0.8-2.8-1.9-3.6-3.1c-0.8-1.2-1.2-2.6-1.2-4.2c0-1.7,0.5-3.3,1.4-4.8c1-1.5,2.4-2.6,4.2-3.4
		c1.9-0.8,3.9-1.1,6.2-1.1c2.5,0,4.7,0.4,6.6,1.2s3.4,2,4.4,3.6c1,1.6,1.6,3.3,1.7,5.3l-4.3,0.3c-0.2-2.1-1-3.7-2.3-4.8
		c-1.3-1.1-3.3-1.6-5.9-1.6c-2.7,0-4.7,0.5-5.9,1.5s-1.9,2.2-1.9,3.6c0,1.2,0.4,2.2,1.3,3c0.9,0.8,3.1,1.6,6.7,2.4
		c3.6,0.8,6.1,1.5,7.5,2.2c2,0.9,3.4,2.1,4.3,3.4c0.9,1.4,1.4,3,1.4,4.8c0,1.8-0.5,3.5-1.5,5.1s-2.5,2.8-4.4,3.7
		c-1.9,0.9-4.1,1.3-6.5,1.3c-3.1,0-5.6-0.4-7.7-1.3c-2.1-0.9-3.7-2.2-4.9-4S848.4,1161.1,848.3,1158.9z"/>
	<path d="M889.8,1169.7V1140h-11.1v-4h26.7v4h-11.2v29.7H889.8z"/>
	<path d="M910.1,1169.7V1136h4.5v13.8h17.5V1136h4.5v33.7h-4.5v-15.9h-17.5v15.9H910.1z"/>
	<path d="M942.7,1153.3c0-5.6,1.5-10,4.5-13.1c3-3.2,6.9-4.8,11.6-4.8c3.1,0,5.9,0.7,8.4,2.2c2.5,1.5,4.4,3.6,5.7,6.2
		c1.3,2.7,2,5.7,2,9.1c0,3.4-0.7,6.5-2.1,9.2c-1.4,2.7-3.3,4.7-5.9,6.1c-2.5,1.4-5.3,2.1-8.2,2.1c-3.2,0-6-0.8-8.5-2.3
		c-2.5-1.5-4.4-3.6-5.7-6.3S942.7,1156.2,942.7,1153.3z M947.3,1153.4c0,4.1,1.1,7.3,3.3,9.6c2.2,2.3,4.9,3.5,8.2,3.5
		c3.4,0,6.1-1.2,8.3-3.5c2.2-2.4,3.3-5.7,3.3-10.1c0-2.7-0.5-5.1-1.4-7.2c-0.9-2-2.3-3.6-4.1-4.8c-1.8-1.1-3.8-1.7-6-1.7
		c-3.2,0-5.9,1.1-8.2,3.3C948.4,1144.7,947.3,1148.3,947.3,1153.4z"/>
	<path d="M1002.8,1136h4.5v19.5c0,3.4-0.4,6.1-1.2,8.1s-2.2,3.6-4.2,4.9c-2,1.2-4.6,1.9-7.9,1.9c-3.2,0-5.7-0.5-7.8-1.6
		c-2-1.1-3.4-2.7-4.3-4.7c-0.9-2.1-1.3-4.9-1.3-8.5V1136h4.5v19.5c0,2.9,0.3,5.1,0.8,6.5s1.5,2.5,2.8,3.2c1.3,0.8,2.9,1.1,4.9,1.1
		c3.3,0,5.6-0.7,7-2.2s2.1-4.3,2.1-8.6V1136z"/>
	<path d="M1030.5,1156.5v-4l14.3,0v12.5c-2.2,1.7-4.5,3.1-6.8,3.9c-2.3,0.9-4.7,1.3-7.2,1.3c-3.3,0-6.3-0.7-9-2.1
		c-2.7-1.4-4.8-3.5-6.1-6.2s-2.1-5.7-2.1-9c0-3.3,0.7-6.3,2.1-9.2c1.4-2.8,3.3-5,5.9-6.3s5.5-2.1,8.9-2.1c2.4,0,4.6,0.4,6.6,1.2
		c2,0.8,3.5,1.9,4.6,3.3c1.1,1.4,2,3.3,2.6,5.5l-4,1.1c-0.5-1.7-1.1-3.1-1.9-4c-0.8-1-1.8-1.8-3.2-2.4c-1.4-0.6-2.9-0.9-4.6-0.9
		c-2,0-3.8,0.3-5.3,0.9s-2.7,1.4-3.6,2.4c-0.9,1-1.6,2.1-2.1,3.3c-0.9,2.1-1.3,4.3-1.3,6.8c0,3,0.5,5.5,1.6,7.5c1,2,2.5,3.5,4.5,4.5
		c2,1,4.1,1.5,6.3,1.5c1.9,0,3.8-0.4,5.7-1.1c1.8-0.7,3.2-1.5,4.2-2.4v-6.3H1030.5z"/>
	<path d="M1051.5,1169.7V1136h4.5v13.8h17.5V1136h4.5v33.7h-4.5v-15.9h-17.5v15.9H1051.5z"/>
	<path d="M1093.9,1169.7V1140h-11.1v-4h26.7v4h-11.2v29.7H1093.9z"/>
</g>
</svg>
